<svg xmlns="http://www.w3.org/2000/svg" viewBox="0 0 1200 720" fill="none">
  <rect width="1200" height="720" fill="#f3e7ca"/>
  <rect y="500" width="1200" height="220" fill="#b66b3e" opacity=".5"/>
  <g transform="translate(180 240)">
    <g transform="translate(0 100)" fill="#5b3a23">
      <rect width="220" height="120" rx="20"/>
      <rect x="20" y="118" width="32" height="80"/>
      <rect x="80" y="118" width="32" height="80"/>
      <rect x="140" y="118" width="32" height="80"/>
      <rect x="200" y="118" width="32" height="80" transform="translate(-26 0)"/>
      <rect x="220" y="20" width="60" height="44" rx="14"/>
      <rect x="240" y="-10" width="14" height="40" rx="6"/>
      <rect x="262" y="-10" width="14" height="40" rx="6"/>
      <circle cx="262" cy="44" r="4" fill="#f4d082"/>
      <rect x="0" y="60" width="80" height="14" rx="7" fill="#3a2210"/>
    </g>
  </g>
  <g transform="translate(700 280)">
    <g transform="translate(0 100)" fill="#7c5536">
      <rect width="180" height="100" rx="18"/>
      <rect x="16" y="98" width="28" height="70"/>
      <rect x="60" y="98" width="28" height="70"/>
      <rect x="110" y="98" width="28" height="70"/>
      <rect x="158" y="98" width="28" height="70"/>
      <rect x="180" y="20" width="48" height="36" rx="12"/>
      <rect x="196" y="-6" width="12" height="32" rx="5"/>
      <rect x="214" y="-6" width="12" height="32" rx="5"/>
    </g>
  </g>
  <g stroke="#175f52" stroke-width="3" fill="none" opacity=".7">
    <path d="M80 540 Q100 500 130 520"/>
    <path d="M380 540 Q400 500 430 520"/>
    <path d="M620 540 Q640 500 670 520"/>
    <path d="M920 540 Q940 500 970 520"/>
  </g>
  <g transform="translate(120 600)" fill="#fff8eb">
    <rect width="280" height="80" rx="40" opacity=".95"/>
    <text x="32" y="52" font-family="Georgia, serif" font-size="30" font-weight="700" fill="#175f52">Pastura preventiva</text>
  </g>
</svg>
