<svg xmlns="http://www.w3.org/2000/svg" viewBox="0 0 1200 720" fill="none">
  <defs>
    <linearGradient id="edbg" x1="0" y1="0" x2="1" y2="1">
      <stop offset="0" stop-color="#fff8eb"/>
      <stop offset="1" stop-color="#d9a85b"/>
    </linearGradient>
  </defs>
  <rect width="1200" height="720" fill="url(#edbg)"/>
  <g transform="translate(600 320)">
    <path d="M-220 0 L0 -90 L220 0 L0 90 Z" fill="#175f52"/>
    <path d="M-130 30 L-130 110 Q-130 140 -100 140 L100 140 Q130 140 130 110 L130 30 L0 80 Z" fill="#175f52"/>
    <path d="M220 0 L220 100" stroke="#175f52" stroke-width="6" stroke-linecap="round"/>
    <circle cx="220" cy="110" r="14" fill="#f4d082"/>
  </g>
  <g transform="translate(600 540)" fill="#fff8eb">
    <rect x="-180" y="-30" width="360" height="100" rx="14" stroke="#175f52" stroke-width="4"/>
    <g stroke="#175f52" stroke-width="4" stroke-linecap="round" fill="none">
      <path d="M-150 0 H150"/>
      <path d="M-150 20 H130"/>
      <path d="M-150 40 H100"/>
    </g>
  </g>
  <g transform="translate(120 620)" fill="#fff8eb">
    <rect width="200" height="68" rx="34" opacity=".95"/>
    <text x="32" y="44" font-family="Georgia, serif" font-size="28" font-weight="700" fill="#175f52">Educació</text>
  </g>
</svg>
