<svg xmlns="http://www.w3.org/2000/svg" viewBox="0 0 1200 720" fill="none">
  <defs>
    <linearGradient id="dbg" x1="0" y1="0" x2="1" y2="1">
      <stop offset="0" stop-color="#175f52"/>
      <stop offset="1" stop-color="#124e44"/>
    </linearGradient>
  </defs>
  <rect width="1200" height="720" fill="url(#dbg)"/>
  <g transform="translate(600 360)" stroke="#f4d082" stroke-width="3" fill="none">
    <circle r="40" cx="0" cy="-160" fill="#f4d082"/>
    <circle r="32" cx="-200" cy="-60" fill="#f4d082"/>
    <circle r="32" cx="200" cy="-60" fill="#f4d082"/>
    <circle r="32" cx="-150" cy="120" fill="#f4d082"/>
    <circle r="32" cx="150" cy="120" fill="#f4d082"/>
    <circle r="40" cx="0" cy="180" fill="#f4d082"/>
    <line x1="0" y1="-160" x2="-200" y2="-60"/>
    <line x1="0" y1="-160" x2="200" y2="-60"/>
    <line x1="-200" y1="-60" x2="-150" y2="120"/>
    <line x1="200" y1="-60" x2="150" y2="120"/>
    <line x1="-150" y1="120" x2="0" y2="180"/>
    <line x1="150" y1="120" x2="0" y2="180"/>
    <line x1="-200" y1="-60" x2="200" y2="-60" stroke-dasharray="6 8"/>
    <line x1="-150" y1="120" x2="150" y2="120" stroke-dasharray="6 8"/>
  </g>
  <g transform="translate(120 600)" fill="#fff8eb">
    <rect width="240" height="68" rx="34" opacity=".95"/>
    <text x="32" y="44" font-family="Georgia, serif" font-size="28" font-weight="700" fill="#175f52">Món digital</text>
  </g>
</svg>
